<?xml version="1.0" standalone="no"?>
<!DOCTYPE svg PUBLIC "-//W3C//DTD SVG 20010904//EN"
 "http://www.w3.org/TR/2001/REC-SVG-20010904/DTD/svg10.dtd">
<svg version="1.0" xmlns="http://www.w3.org/2000/svg"
 width="256.000000pt" height="256.000000pt" viewBox="0 0 256.000000 256.000000"
 preserveAspectRatio="xMidYMid meet">

<g transform="translate(0.000000,256.000000) scale(0.100000,-0.100000)"
fill="#000000" stroke="none">
<path d="M1885 2308 c-11 -6 -45 -30 -75 -54 -82 -63 -179 -110 -199 -96 -53
38 -80 46 -171 50 -68 3 -107 0 -139 -11 -40 -14 -50 -14 -104 -1 -86 22 -200
4 -235 -39 -10 -12 -20 -13 -50 -5 -57 16 -163 72 -219 117 -30 23 -58 38 -67
35 -55 -21 -47 -256 14 -417 17 -45 29 -62 60 -79 l38 -22 -33 -66 c-65 -129
-105 -312 -105 -479 l0 -84 -39 -38 c-22 -20 -37 -39 -35 -42 7 -7 63 10 80
24 10 8 14 8 14 1 0 -17 -59 -80 -81 -87 -36 -12 -21 -28 21 -22 22 3 40 4 40
2 0 -20 -37 -96 -56 -117 -33 -33 -23 -52 23 -45 33 6 34 5 29 -26 -15 -95
-16 -130 -6 -192 6 -37 19 -84 29 -104 36 -68 110 -127 182 -144 23 -6 26 -11
25 -51 -1 -30 5 -50 18 -65 19 -21 25 -21 436 -21 l417 0 28 27 c15 16 41 48
58 73 17 24 56 69 87 100 42 41 60 67 71 105 15 53 19 180 7 255 l-7 45 38 -3
c53 -5 60 13 23 51 -30 31 -62 102 -62 136 1 14 2 14 11 -1 9 -16 69 -27 69
-14 0 3 -13 20 -30 38 -26 28 -30 40 -30 88 0 187 -44 432 -100 563 -44 102
-45 107 -27 107 16 1 50 29 70 61 29 44 57 194 57 312 0 94 -2 109 -20 127
-23 23 -28 24 -55 8z m32 -152 c-9 -183 -48 -292 -109 -312 -16 -5 -35 9 -94
67 l-74 73 0 59 0 58 52 32 c29 18 88 55 132 84 44 28 84 49 89 46 6 -3 7 -49
4 -107z m-1246 86 c13 -10 46 -31 74 -47 63 -36 43 -45 -25 -10 -72 36 -73 26
-2 -18 33 -20 71 -52 86 -71 23 -30 25 -38 14 -55 -10 -17 -9 -23 6 -39 27
-30 10 -82 -34 -104 -84 -43 -118 -12 -144 131 -17 92 -21 231 -7 231 4 0 19
-8 32 -18z m829 -72 c30 -6 61 -17 70 -25 10 -9 22 -45 28 -83 14 -81 4 -95
-62 -86 -96 14 -146 60 -154 142 -4 47 -3 51 19 55 41 7 45 7 99 -3z m-323 -8
c17 -11 -33 -90 -79 -126 -51 -39 -55 -32 -7 14 23 22 39 43 35 47 -3 4 -19
-7 -34 -25 -15 -17 -34 -32 -42 -33 -37 -4 -60 2 -60 15 0 8 -10 22 -22 30
-27 19 -15 35 45 65 43 21 139 29 164 13z m-324 -44 c15 -6 26 -15 24 -21 -6
-20 -22 -16 -57 14 -22 20 -28 28 -15 24 11 -4 33 -12 48 -17z m65 -56 c3 -20
5 -21 28 -6 22 15 24 15 30 0 4 -9 4 -20 0 -23 -3 -3 2 -11 11 -18 21 -16 10
-45 -17 -45 -14 0 -20 -7 -20 -24 0 -27 -24 -41 -39 -22 -6 7 -23 11 -41 8
-33 -5 -37 4 -16 33 12 16 10 21 -12 40 l-26 22 22 12 c12 7 27 9 32 6 6 -3
10 2 10 13 0 38 33 42 38 4z m527 -88 c44 -14 85 -31 90 -37 7 -7 4 -8 -10 -3
-155 56 -261 67 -374 41 -35 -9 -66 -14 -68 -11 -4 4 61 27 112 40 45 11 173
-4 250 -30z m155 -64 c17 -9 46 -70 33 -70 -4 0 -15 7 -25 17 -10 9 -28 21
-40 27 -12 6 -23 17 -26 24 -5 15 31 16 58 2z m-820 -49 c0 -5 -6 -14 -14 -20
-11 -9 -16 -9 -21 0 -4 6 -1 15 6 20 18 11 29 11 29 0z m57 -35 c-37 -45 -105
-199 -132 -302 -9 -32 -19 -101 -22 -152 -7 -105 -23 -106 -23 -1 0 121 70
335 146 447 20 28 43 52 51 52 11 0 4 -14 -20 -44z m66 20 c9 5 9 4 0 -6 -13
-15 -37 -4 -26 13 5 8 8 8 11 -1 2 -7 9 -9 15 -6z m897 -132 c22 -44 49 -115
60 -159 21 -83 27 -181 10 -170 -5 3 -10 22 -10 42 0 72 -41 211 -95 319 -34
71 -44 98 -28 79 13 -17 42 -66 63 -111z m-268 -94 c32 -32 58 -64 58 -70 0
-6 -31 -10 -79 -10 -44 0 -83 -4 -86 -10 -4 -6 27 -10 85 -10 l91 0 15 -36 15
-36 23 21 23 22 7 -32 c3 -17 6 -48 6 -69 l0 -37 -42 20 c-55 28 -121 27 -181
-2 -48 -23 -61 -41 -29 -41 14 0 17 -9 18 -50 1 -70 28 -105 80 -105 33 0 42
5 62 35 18 27 23 46 20 83 -2 26 -1 47 0 47 2 0 17 -9 33 -21 34 -24 36 -41 9
-94 -25 -48 -25 -48 0 -35 17 9 19 8 13 -7 -13 -35 -37 -65 -72 -89 l-36 -24
44 0 43 0 -23 -20 c-22 -18 -22 -19 -5 -20 18 0 18 -2 -5 -26 -39 -42 -79 -62
-208 -103 l-123 -40 -119 34 c-138 40 -183 61 -224 106 -28 29 -28 31 -7 26
12 -3 22 -1 22 4 0 5 -3 9 -7 9 -5 0 -19 9 -33 20 l-25 20 45 -6 45 -6 -32 22
c-18 12 -41 36 -53 54 -22 37 -27 57 -8 38 23 -23 27 -11 9 26 -31 59 -30 81
4 108 l31 23 0 -55 c1 -72 26 -108 77 -112 32 -3 39 1 57 30 15 24 20 46 18
81 -3 41 -1 47 17 47 18 0 18 1 3 16 -9 9 -40 24 -69 34 -53 18 -77 16 -153
-15 -17 -7 -18 -5 -12 21 4 16 18 53 31 82 l24 52 80 0 80 0 21 -47 c27 -62
63 -108 113 -144 49 -36 54 -36 70 -1 6 15 26 47 44 72 41 59 68 121 83 196 7
32 14 65 16 72 7 26 40 10 96 -48z m-450 -20 l3 -60 -67 0 c-38 0 -68 3 -68 6
0 23 96 114 121 114 4 0 9 -27 11 -60z m613 -1 c-4 -13 0 -27 11 -40 16 -18
16 -19 -5 -19 -14 0 -26 -9 -33 -27 l-12 -28 -4 29 c-2 15 -16 39 -30 53 -26
23 -26 24 -4 18 15 -4 31 1 48 14 33 26 37 26 29 0z m-705 -294 c0 -8 -7 -15
-15 -15 -16 0 -20 12 -8 23 11 12 23 8 23 -8z m528 -3 c2 -7 -3 -12 -12 -12
-9 0 -16 7 -16 16 0 17 22 14 28 -4z m-498 -52 c0 -5 -2 -10 -4 -10 -3 0 -8 5
-11 10 -3 6 -1 10 4 10 6 0 11 -4 11 -10z m525 0 c-3 -5 -10 -10 -16 -10 -5 0
-9 5 -9 10 0 6 7 10 16 10 8 0 12 -4 9 -10z m-536 -40 c10 0 24 7 31 15 9 11
16 13 23 6 16 -16 -21 -51 -54 -51 -19 0 -34 8 -45 25 -20 30 -8 55 13 26 8
-12 22 -21 32 -21z m588 24 c5 -16 -36 -54 -58 -54 -32 0 -59 19 -59 42 0 20
1 20 18 5 25 -23 49 -21 64 3 13 20 29 22 35 4z m-966 -306 c-5 -13 -16 -30
-25 -37 -10 -9 -9 0 7 27 24 44 33 49 18 10z m529 -87 c0 -6 -4 -13 -10 -16
-5 -3 -10 1 -10 9 0 9 5 16 10 16 6 0 10 -4 10 -9z m280 0 c0 -17 -18 -21 -24
-6 -3 9 0 15 9 15 8 0 15 -4 15 -9z m-189 -17 c38 -16 43 -16 75 0 44 21 51
20 57 -4 4 -14 -9 -37 -39 -75 -25 -30 -48 -55 -52 -55 -4 0 -28 27 -55 59
-30 38 -45 65 -41 75 8 20 5 20 55 0z m-42 -91 c28 -32 51 -65 50 -73 0 -15
-62 48 -101 103 -35 48 -1 29 51 -30z m-89 -10 c0 -15 -10 -38 -22 -51 l-23
-24 32 18 c30 18 32 18 52 0 13 -12 21 -31 21 -53 0 -30 -2 -33 -19 -23 -35
18 -37 11 -3 -10 51 -31 28 -41 -30 -13 -28 14 -90 37 -136 52 -84 28 -97 47
-25 37 l38 -5 -37 10 -37 11 26 39 c14 21 26 39 27 39 0 0 19 7 41 14 52 18
95 0 95 -41z m470 27 c14 -10 32 -31 40 -47 8 -15 22 -33 30 -40 21 -16 11
-22 -56 -38 -111 -27 -223 -80 -275 -131 -27 -26 -51 -45 -55 -41 -3 3 13 30
37 59 24 29 44 54 45 56 0 1 27 9 60 18 32 8 67 23 77 32 10 9 46 25 80 34 60
17 34 17 -50 -1 -35 -7 -45 -5 -58 9 -23 25 -18 68 10 96 21 21 31 24 58 18
18 -3 43 -15 57 -24z m-191 -12 c-13 -18 -47 -60 -77 -93 -29 -33 -68 -83 -85
-112 -18 -29 -38 -53 -44 -53 -34 0 4 58 125 192 87 97 123 126 81 66z m515
-28 c4 -25 3 -31 -4 -20 -5 8 -10 26 -10 39 0 32 6 24 14 -19z m-1271 -65 c2
-44 1 -71 -4 -60 -4 11 -8 52 -8 90 1 89 6 74 12 -30z m301 -120 c37 -72 45
-110 24 -118 -7 -2 1 -11 19 -20 31 -17 73 -61 73 -79 0 -5 -17 4 -37 21 -21
17 -43 31 -51 31 -25 0 -91 40 -97 59 -3 11 1 50 10 87 8 37 13 69 10 72 -5 6
-24 -42 -26 -66 -1 -15 -2 -15 -6 -1 -5 21 29 101 39 91 4 -4 23 -38 42 -77z
m189 14 c31 -13 33 -21 11 -40 -8 -7 -22 -26 -30 -42 -14 -25 -14 -31 0 -53
13 -18 14 -32 7 -65 -5 -22 -11 -42 -13 -45 -9 -9 -108 140 -108 162 0 13 -5
26 -10 29 -13 8 -35 53 -43 86 l-7 27 83 -24 c45 -13 94 -29 110 -35z m577 21
c11 -21 20 -43 20 -47 0 -4 -23 -20 -51 -36 l-50 -27 16 29 c8 17 15 40 15 53
0 16 -7 9 -24 -27 -12 -27 -31 -56 -40 -64 -9 -8 -33 -38 -51 -66 -19 -28 -43
-60 -54 -69 -19 -17 -20 -17 -35 35 -11 35 -13 56 -6 63 30 30 -10 86 -62 86
l-32 0 20 20 c21 22 195 64 224 55 8 -2 26 4 40 15 36 28 47 25 70 -20z m60
-143 c-25 -66 -40 -81 -40 -38 0 22 -8 36 -30 53 l-30 22 57 30 c56 30 58 30
61 10 2 -11 -7 -46 -18 -77z m-432 51 c-3 -7 -13 -15 -24 -17 -16 -3 -17 -1
-5 13 16 19 34 21 29 4z m-127 -17 c20 -16 22 -23 13 -38 -14 -23 -33 -27 -67
-14 -29 11 -35 39 -15 59 17 17 42 15 69 -7z m207 7 c19 -19 14 -38 -14 -48
-47 -18 -88 25 -46 49 23 14 45 14 60 -1z m-99 -41 c8 -10 1 -23 -30 -53 -32
-31 -43 -37 -57 -28 -26 17 -25 37 2 67 27 29 67 35 85 14z m383 -4 c41 -37 4
-103 -57 -103 -54 0 -71 46 -34 94 24 30 63 34 91 9z m-324 -59 c52 -63 14
-89 -45 -32 -31 30 -32 33 -16 50 22 25 27 23 61 -18z m46 14 c12 -46 6 -53
-19 -23 -30 36 -31 45 -6 45 11 0 21 -9 25 -22z m159 -16 c4 -21 3 -31 -3 -27
-6 3 -10 20 -10 37 0 38 5 34 13 -10z m-399 19 c7 -11 -29 -82 -38 -74 -8 8
-8 47 0 67 7 17 29 22 38 7z m-286 -36 c-13 -29 -28 -33 -28 -7 0 22 8 32 26
32 11 0 11 -5 2 -25z m90 -1 c24 -17 21 -34 -7 -34 -25 0 -57 36 -39 43 20 8
22 8 46 -9z m259 -29 c-5 -13 -67 -19 -67 -6 0 31 11 39 41 28 16 -6 28 -16
26 -22z m93 -17 c0 -4 -16 -8 -35 -8 -27 0 -35 4 -35 18 0 10 5 23 12 30 9 9
17 7 35 -10 13 -12 23 -25 23 -30z"/>
<path d="M1764 2146 c-33 -24 -70 -56 -84 -72 -19 -22 -15 -20 15 7 22 20 61
50 88 68 42 28 55 41 43 41 -2 0 -30 -20 -62 -44z"/>
<path d="M1430 2034 c0 -8 32 -33 43 -34 5 0 5 4 2 10 -8 13 -45 33 -45 24z"/>
<path d="M1570 1989 c0 -5 5 -7 10 -4 6 3 10 8 10 11 0 2 -4 4 -10 4 -5 0 -10
-5 -10 -11z"/>
<path d="M900 1990 c0 -5 5 -10 10 -10 6 0 10 5 10 10 0 6 -4 10 -10 10 -5 0
-10 -4 -10 -10z"/>
<path d="M1271 1134 c0 -11 3 -14 6 -6 3 7 2 16 -1 19 -3 4 -6 -2 -5 -13z"/>
<path d="M1146 1042 c-3 -5 8 -13 25 -19 35 -14 37 -10 5 11 -14 9 -27 12 -30
8z"/>
<path d="M1355 1023 c-18 -14 -18 -15 -2 -9 10 3 23 6 28 6 5 0 9 5 9 10 0 14
-12 12 -35 -7z"/>
<path d="M1298 1003 c6 -2 18 -2 25 0 6 3 1 5 -13 5 -14 0 -19 -2 -12 -5z"/>
<path d="M1010 652 c0 -4 17 -14 38 -22 20 -8 41 -17 45 -18 5 -2 -4 8 -18 22
-24 24 -65 36 -65 18z"/>
<path d="M1588 703 c5 -21 7 -23 10 -9 2 10 0 22 -6 28 -6 6 -7 0 -4 -19z"/>
</g>
</svg>
